<svg xmlns="http://www.w3.org/2000/svg" width="440" height="263.5" viewBox="0 0 440 263.5"><path fill="#8A8A8A" d="M98.623 34.948c-9.415 0-17.074-7.66-17.074-17.072C81.55 8.46 89.207.802 98.622.802s17.07 7.66 17.07 17.074c.002 9.413-7.655 17.072-17.07 17.072zm0-33.146c-8.862 0-16.074 7.21-16.074 16.074 0 8.862 7.21 16.072 16.073 16.072 8.86 0 16.07-7.21 16.07-16.072.002-8.864-7.208-16.074-16.07-16.074z"/><path fill="#040000" d="M36.334 33.246c-4.777 0-8.666-3.887-8.666-8.666 0-4.78 3.89-8.666 8.666-8.666S45 19.802 45 24.58c0 4.778-3.888 8.666-8.666 8.666zm0-16.332c-4.228 0-7.666 3.44-7.666 7.666s3.438 7.666 7.666 7.666S44 28.806 44 24.58s-3.44-7.666-7.666-7.666z"/><g fill="#040000"><path d="M185.31 101.147l6.077 6.076-.77.77-6.077-6.076z"/><path d="M180.5 103.944c-3.83 0-6.943-3.115-6.943-6.943 0-3.828 3.114-6.943 6.944-6.943s6.943 3.115 6.943 6.944-3.114 6.944-6.942 6.944zm0-12.8c-3.228 0-5.854 2.626-5.854 5.855s2.628 5.854 5.855 5.854c3.23 0 5.855-2.627 5.855-5.855s-2.627-5.855-5.854-5.855z"/></g><g fill="#040000"><path d="M212.828 101.154L219 107.23l-.78.77-6.173-6.077"/><path d="M208.054 103.888c-3.89 0-7.055-3.115-7.055-6.943 0-3.83 3.163-6.944 7.054-6.944 3.89 0 7.052 3.116 7.052 6.945 0 3.83-3.165 6.943-7.052 6.943zm0-12.8c-3.28 0-5.948 2.626-5.948 5.855s2.67 5.855 5.948 5.855c3.277 0 5.945-2.627 5.945-5.855 0-3.23-2.67-5.854-5.946-5.854z"/></g><g fill="#040000"><path d="M10.42 9.94l5.303 5.3-.673.675-5.302-5.303z"/><path d="M6.31 12.328c-3.343 0-6.06-2.72-6.06-6.06 0-3.342 2.717-6.06 6.06-6.06 3.342 0 6.06 2.718 6.06 6.06 0 3.34-2.72 6.06-6.06 6.06zm0-11.17c-2.816 0-5.108 2.292-5.108 5.11s2.292 5.108 5.108 5.108 5.108-2.292 5.108-5.11S9.128 1.16 6.31 1.16z"/></g><path fill="#FFF" d="M91.44 137.166c-5.33 0-9.665-4.336-9.665-9.665s4.336-9.666 9.666-9.666 9.667 4.338 9.667 9.667-4.335 9.666-9.666 9.666zm0-17.332c-4.227 0-7.665 3.44-7.665 7.667s3.438 7.666 7.666 7.666 7.667-3.438 7.667-7.665-3.438-7.666-7.666-7.666z"/><path fill="#040000" d="M42.57 30.268l6.893 6.894-.707.707-6.894-6.895zM2.27 17.2l21.295 21.295-.828.83L1.44 18.027z"/><path fill="#040000" d="M23.173 16.758l.83.83L1.827 39.76l-.83-.828z"/><path fill="#231815" d="M16.608.854h14.167v1H16.608zM16.608 6.02h14.167v1H16.608zM16.608 11h14.167v1H16.608z"/><g fill="#040000"><path d="M220.99 13.302l7.134 7.133-.905.905-7.134-7.133z"/><path d="M215.47 16.51c-4.497 0-8.153-3.657-8.153-8.15 0-4.495 3.656-8.152 8.152-8.152 4.495 0 8.15 3.657 8.15 8.152 0 4.493-3.657 8.15-8.15 8.15zm0-15.024c-3.79 0-6.872 3.083-6.872 6.872 0 3.79 3.083 6.872 6.87 6.872 3.79 0 6.874-3.083 6.874-6.872s-3.084-6.872-6.873-6.872z"/></g><path fill="#231815" d="M229.32 1.077h19.058v1.345H229.32zM229.32 8.027h19.058v1.345H229.32zM229.32 14.725h19.058v1.345H229.32z"/><path fill="#040000" d="M38.275 6.354L32.588.708 33.295 0l5.334 5.334"/><path fill="#040000" d="M38.275 6.354l-.354-1.02L43.2.054l.708.708M46.014 13.978l-.707-.707L57.93.52l1.11.433"/><path fill="#040000" d="M58.186.6h1v8.42h-1z"/><path fill="#040000" d="M57.93 1.52h-7.49v-1l8.746.08"/><path fill="#FFF" d="M59.49 13.978l-.706-.707L71.408.52l1.108.433"/><path fill="#FFF" d="M72.663 9.02h-1l-.255-8.5 1.108-.166M63.918.52h7.49v1h-7.49z"/><path fill="#040000" d="M50.44 26.458h20.334v1H50.44z"/><g fill="#040000"><path d="M62.108 17.73l9.333 9.332-.707.707-9.333-9.334z"/><path d="M62.566 36.187l-.707-.707 8.167-8.417h1.414"/></g><path fill="#040000" d="M78.547 43.813h23.608v1.793H78.547z"/><path fill="#040000" d="M79.182 45.345l-1.887-.636 6.444-6.46 1.27 1.267"/><path fill="#040000" d="M83.814 51.247l-6.52-6.538 1.888-.633 5.902 5.9"/><path fill="#FFF" d="M103.775 39.187h12.333V51.52h-12.333z"/><path fill="#CA3631" d="M105.968 41.08l8.708 8.71-.708.706-8.707-8.708z"/><path fill="#CA3631" d="M113.966 41.09l.707.706-8.707 8.713-.707-.708z"/><g fill="#CA3631"><path d="M67.668 122.002l6.41 6.408-.596.595-6.408-6.408z"/><path d="M73.47 121.99l.595.596-6.41 6.41-.596-.595z"/></g><path fill="#CA3631" d="M77.104 132H64.028v-13h13.077v13zm-12.076-1h11.077v-11H65.028v11z"/><path fill="#070001" d="M37.755 58.375L24.42 45.04l.71-.706L38.732 57.98"/><path fill="#070001" d="M25.296 71.542l-.708-.708 13.167-13.166.978.31M9.712 58.125l-1.166-.27 13.542-13.52.707.706"/><path fill="#070001" d="M22.254 71.375L8.546 57.855l1.166-.437 13.25 13.25"/><circle fill="#070001" cx="81.941" cy="81.437" r="7.417"/><path fill="#CA3631" d="M63.292 108H74.71v1H63.29z"/><g fill="#CA3631"><path d="M68.396 94.02h1v13h-1z"/><path d="M68.896 107.667l-.354-1 4.312-4.312.708.707"/><path d="M68.896 107.667l-4.458-4.396.708-.706 4.104 4.103"/></g><path fill="#070001" d="M54.292 88H65.71v1H54.29zM59.44 73.937h1v13h-1z"/><path fill="#070001" d="M59.942 87.635l-.354-1.052L63.9 82.27l.708.708"/><path fill="#070001" d="M59.942 87.635l-4.458-4.448.707-.707 4.105 4.103M1.275 102.198h8.583v1H1.275z"/><path fill="#070001" d="M5.066 98.365h1v8.667h-1z"/><g fill="#070001"><path d="M134.442 90.364l-1.397-1.437 15.523-15.603 1.414 1.414"/><path d="M135.087 88.2l14.042 14.042-1.415 1.414-14.042-14.04z"/></g><g fill="#070001"><path d="M168.213 88.613l-13.98-13.98 1.415-1.414 14.688 14.665"/><path d="M154.482 103.76l-1.414-1.415L168.213 87.2l2.123.685"/></g><path fill="#070001" d="M127.024 47.064l-1.124-.168 13.46-20.158.83.554"/><path fill="#070001" d="M139.37 65.247l-13.47-18.35 1.112-.404L140.18 64.66M146.032 66.034l-.832-.556 13.167-19.77 1.033.25"/><path fill="#070001" d="M158.377 46.277L145.21 28.11l.81-.586 13.38 18.434"/><path fill="#F7F7F7" d="M101.92 112.03v-48.5l24.375 24.376M189.96 27.27v48.5l-24.374-24.375"/><path fill="#FFF" d="M90.44 122.45h2v6.124h-2zM90.44 129.74h2v1.917h-2z"/><g fill="#323333"><path d="M59.038 132H45.962v-13h13.076v13zm-12.076-1h11.076v-11H46.962v11z"/><path d="M48.304 125.01h8.394v1h-8.394z"/><path d="M52.03 120.98h.94v9.062h-.94z"/></g><path fill="#FFF" d="M40.315 43.648l19.587 19.586-1.414 1.415L38.9 45.06z"/><path fill="#FFF" d="M58.483 43.643l1.414 1.413L40.315 64.65 38.9 63.24zM7.437 53.538l-8.83-8.83.706-.708 9.233 9.187"/><path fill="#FFF" d="M-.532 62.213l-.707-.707 8.677-8.675 1.11.357M87.292 67.377l-4.87-5.164.707-.707 4.822 5.098"/><path fill="#FFF" d="M95.8 57.473l.707.707-9.218 9.212-.708-.707z"/><path fill="#040000" d="M64.254 57.523h14.354v9.5H64.254z"/><path fill="#FFF" d="M69.053 67.047l-4.798-4.99.697-.683 4.802 4.986"/><path fill="#FFF" d="M69.053 67.047l-.696-.683 9.074-8.905.698.683M67.13 44.33l6.608 6.608-.708.708-6.608-6.608z"/><path fill="#FFF" d="M73.023 44.34l.707.71-6.615 6.602-.707-.71z"/><path fill="#8A8A8A" d="M85.852 17.375h25.54v1h-25.54z"/><path fill="#8A8A8A" d="M98.122 5.228h1v25.294h-1z"/><path d="M147.21 8.057l.327-2.545h-2.52V3.887c0-.737.204-1.24 1.26-1.24h1.35V.37c-.232-.03-1.032-.1-1.964-.1-1.942 0-3.272 1.187-3.272 3.365v1.877h-2.197v2.545h2.198v6.53h2.63v-6.53h2.19z"/><path fill="#FFF" d="M132.624 8.057l.328-2.545h-2.52V3.887c0-.737.204-1.24 1.26-1.24h1.35V.37c-.232-.03-1.033-.1-1.964-.1-1.942 0-3.272 1.187-3.272 3.365v1.877h-2.198v2.545h2.198v6.53h2.628v-6.53h2.19zM26.142 106.16l.333-2.58H23.92v-1.65c0-.746.208-1.256 1.28-1.256h1.364v-2.31c-.235-.03-1.046-.1-1.99-.1-1.97 0-3.32 1.202-3.32 3.41v1.904h-2.228v2.58h2.23v6.624h2.664v-6.623h2.222z"/><path d="M111.225 149.048l.34-2.642h-2.615v-1.688c0-.764.213-1.284 1.31-1.284l1.398-.002v-2.36c-.242-.026-1.07-.105-2.04-.105-2.017 0-3.395 1.23-3.395 3.493v1.948h-2.282v2.64h2.283v6.78h2.73v-6.78h2.272z"/><path fill="#FFF" d="M175.772 13.573c0 1.137-1.236 2.06-2.762 2.06h-13.894c-1.522 0-2.76-.922-2.76-2.06V2.413c0-1.138 1.234-2.06 2.76-2.06h13.896c1.52 0 2.76.922 2.76 2.06v11.16z"/><path fill="#070001" d="M164.402 11.37V4.617l5.438 3.377M199.4 13.49c0 1.137-1.263 2.06-2.814 2.06h-14.162c-1.555 0-2.813-.922-2.813-2.06V2.33c0-1.138 1.263-2.06 2.814-2.06h14.162c1.556 0 2.813.922 2.813 2.06v11.16zm-6.048-5.58l-5.544-3.376v6.752l5.544-3.375zM277.484 153.75c0 1.074-1.313 1.943-2.918 1.943H259.88c-1.608 0-2.916-.87-2.916-1.943v-10.523c0-1.07 1.31-1.938 2.916-1.938h14.688c1.61 0 2.918.868 2.918 1.937l-.002 10.523zm-6.27-5.372l-5.747-3.233v6.465l5.747-3.232z"/><path fill="#FFF" d="M55.483 110.313c0 .948-1.208 1.718-2.697 1.718H39.22c-1.49 0-2.7-.77-2.7-1.717V101c0-.95 1.21-1.72 2.7-1.72h13.565c1.488 0 2.697.77 2.697 1.72v9.313zm-5.793-4.655l-5.313-2.818v5.635l5.313-2.817z"/><path fill="none" stroke="#000" stroke-miterlimit="10" d="M22.868 119l14.16 14.16M37.028 119l-14.16 14.16"/><path fill="#040000" d="M-.097 117.834h16v16h-16z"/><g fill="none" stroke="#FFF" stroke-width="2" stroke-miterlimit="10"><path d="M3.882 121.98l8.042 8.04M11.924 121.98l-8.042 8.04"/></g><g fill="#231815"><path d="M216.104 141.284h-6.112c-2.484 0-4.507 2.02-4.507 4.506v6.112c0 2.486 2.02 4.507 4.507 4.507h6.112c2.484 0 4.505-2.022 4.505-4.508v-6.112c0-2.485-2.022-4.506-4.506-4.506zm2.984 10.618c0 1.646-1.336 2.98-2.984 2.98h-6.113c-1.646 0-2.982-1.337-2.982-2.98v-6.112c0-1.647 1.336-2.983 2.983-2.983h6.114c1.647 0 2.984 1.336 2.984 2.983v6.112z"/><path d="M213.047 144.936c-2.156 0-3.91 1.754-3.91 3.912 0 2.156 1.754 3.91 3.91 3.91 2.157 0 3.912-1.754 3.912-3.91 0-2.16-1.756-3.912-3.913-3.912zm0 6.3c-1.32 0-2.392-1.07-2.392-2.396 0-1.314 1.07-2.39 2.392-2.39 1.32 0 2.39 1.063 2.39 2.39 0 1.327-1.07 2.396-2.39 2.396z"/><circle cx="216.967" cy="144.964" r=".937"/></g><path d="M168.897 142.713c-.674.3-1.398.502-2.16.594.777-.467 1.374-1.203 1.654-2.08-.726.438-1.53.744-2.387.912-.687-.73-1.664-1.19-2.744-1.19-2.077 0-3.762 1.685-3.762 3.76 0 .296.033.583.098.856-3.125-.155-5.896-1.65-7.75-3.937-.323.562-.51 1.2-.51 1.895 0 1.306.665 2.455 1.673 3.132-.616-.02-1.196-.188-1.704-.474v.047c0 1.822 1.297 3.346 3.017 3.688-.315.085-.65.133-.99.133-.242 0-.48-.02-.708-.062.48 1.486 1.867 2.574 3.513 2.604-1.286 1.01-2.907 1.61-4.67 1.61-.304 0-.603-.022-.896-.055 1.663 1.063 3.64 1.688 5.766 1.688 6.915 0 10.697-5.73 10.697-10.694 0-.16-.004-.325-.01-.48.73-.53 1.367-1.19 1.872-1.947zM37.37 165.873c.13.08.272.193.433.348.153.16.303.355.45.587.14.22.266.48.374.773.09.297.135.645.135 1.042-.013.728-.174 1.31-.483 1.746-.15.213-.314.407-.48.587-.19.178-.39.36-.602.546-.12.127-.232.27-.337.428-.12.166-.18.356-.18.575 0 .213.063.388.188.526.104.132.208.247.308.347l.69.564c.43.354.806.74 1.13 1.163.304.43.462.992.477 1.687 0 .985-.437 1.858-1.308 2.62-.9.79-2.206 1.195-3.908 1.223-1.426-.014-2.488-.316-3.19-.91-.71-.557-1.064-1.22-1.064-1.992 0-.376.116-.796.348-1.257.225-.463.63-.87 1.217-1.22.658-.376 1.352-.628 2.076-.754.718-.105 1.314-.165 1.79-.178-.146-.194-.277-.4-.394-.62-.136-.212-.202-.47-.202-.767 0-.188.024-.33.076-.45.044-.126.087-.24.125-.353-.23.026-.45.04-.654.04-1.083-.014-1.908-.353-2.478-1.02-.595-.623-.893-1.348-.893-2.174 0-1 .42-1.906 1.264-2.728.577-.48 1.18-.778 1.802-.937.617-.127 1.195-.188 1.735-.188h4.067l-1.256.73-1.257.018zm.786 11.713c0-.518-.168-.966-.505-1.352-.354-.362-.912-.813-1.67-1.34-.13-.02-.283-.02-.458-.02-.104-.017-.37 0-.797.038-.42.063-.854.152-1.293.287-.104.04-.25.1-.438.18-.188.086-.378.208-.574.366-.188.165-.346.37-.477.615-.148.26-.223.57-.223.936 0 .718.322 1.306.97 1.77.617.467 1.46.7 2.526.717.96-.017 1.69-.23 2.196-.638.498-.405.744-.922.744-1.56zm-2.836-5.965c.536-.02.982-.212 1.34-.576.172-.26.282-.522.332-.797.03-.27.045-.5.045-.685 0-.812-.206-1.612-.616-2.437-.19-.392-.444-.71-.76-.946-.32-.23-.688-.355-1.105-.368-.552.014-1.01.23-1.375.666-.31.45-.456.955-.44 1.513 0 .736.215 1.502.645 2.3.208.37.478.685.81.942.324.26.7.39 1.125.39zM45.395 167.36H43.26v-2.133h-1.035v2.134H40.09v1.036h2.135v2.133h1.035v-2.134h2.135"/><g fill="#231815"><path d="M69.055 171.484c.464 0 .825-.146 1.09-.342.265-.203.397-.48.397-.834v-2.142c0-.313-.135-.57-.402-.77-.27-.198-.615-.3-1.037-.3-.462 0-.832.092-1.105.28s-.412.44-.412.767v2.146c0 .353.135.63.4.838.266.213.624.356 1.07.356zm-.484-3.23c0-.083.044-.146.133-.2.088-.05.2-.073.34-.073.15 0 .274.025.367.075.094.053.14.116.14.2v2.026c0 .103-.046.183-.138.24-.092.055-.215.085-.37.085-.15 0-.268-.027-.35-.086-.08-.062-.12-.142-.12-.24v-2.026zm3.55 3.228c.163 0 .328-.092.5-.186.173-.092.34-.224.498-.396v.477h.863v-4.286h-.862v3.255c-.08.093-.17.17-.267.23-.098.06-.18.09-.24.09-.082 0-.142-.02-.176-.065-.037-.048-.06-.12-.06-.22v-3.287h-.86v3.58c0 .257.05.446.15.572.105.13.255.237.455.237zm2.515.66h-10.45c-1.664 0-3.01 1.245-3.01 2.78v2.353c0 1.537 1.347 2.78 3.01 2.78h10.45c1.66 0 3.008-1.245 3.008-2.78v-2.354c0-1.533-1.348-2.777-3.008-2.777zm-8.897 2.385h-.924v3.684h-.894v-3.683h-.924v-.63h2.742v.63zm2.76 3.735h-.965v-.382c-.18.142-.363.25-.56.323-.188.072-.376.11-.56.11-.224 0-.39-.06-.502-.157-.11-.104-.168-.258-.168-.465v-2.906h.964v2.668c0 .083.02.142.06.176.042.04.108.058.198.058.07 0 .16-.02.27-.072.11-.05.208-.106.3-.188v-2.64h.963v3.476zm3.646-.662c0 .23-.075.4-.226.524-.146.123-.364.183-.646.183-.188 0-.354-.02-.498-.07-.146-.045-.282-.113-.406-.22v.247h-.963V173.9h.963v1.405c.13-.096.268-.172.408-.224.146-.05.292-.075.438-.075.302 0 .53.07.688.205.16.138.24.34.24.603l.002 1.787zm3.666-.982h-1.774v.63c0 .174.028.295.09.363.064.066.168.104.315.104.156 0 .263-.03.325-.088.062-.06.094-.183.094-.38v-.152h.953v.172c0 .342-.113.604-.35.77-.232.174-.582.26-1.044.26-.417 0-.745-.092-.982-.274-.237-.182-.358-.436-.358-.758v-1.498c0-.287.132-.52.396-.707.264-.184.6-.272 1.018-.272.424 0 .75.087.98.254.226.17.34.41.34.73l-.004.846zm-10.59-5.123h1.09v-2.562l1.272-3.61h-1.11l-.677 2.47h-.068l-.71-2.47h-1.1l1.302 3.727v2.445zm5.546 4.023l-.202.03-.195.1v2.003c.075.06.15.1.226.116l.23.035c.116 0 .2-.022.257-.07.056-.044.083-.118.083-.218v-1.664c0-.104-.032-.188-.1-.248-.072-.054-.17-.082-.3-.082z"/><path d="M74.492 175.37c-.15 0-.255.028-.32.092-.062.062-.094.16-.094.302v.336h.82v-.336c0-.142-.033-.238-.1-.302-.06-.064-.165-.092-.306-.092z"/></g><path d="M312.21 155.438v-9.623h-3.2v9.623h3.2zm-1.6-10.938c1.113 0 1.81-.738 1.81-1.662-.02-.943-.693-1.663-1.788-1.663-1.096 0-1.812.72-1.812 1.663 0 .924.694 1.662 1.77 1.662h.02zM313.98 155.438h3.197v-5.375c0-.287.02-.565.104-.77.23-.575.76-1.17 1.643-1.17 1.157 0 1.62.882 1.62 2.175v5.146h3.198v-5.52c0-2.957-1.576-4.332-3.682-4.332-1.73 0-2.482.968-2.903 1.622h.02v-1.396h-3.196c.04.898 0 9.62 0 9.62z"/><path fill="#040000" d="M65.438 140.52c-.61.27-.753.9-.307 1.355.22.217.423.255 1.314.255 1.25 0 2.093.332 2.73 1.07.777.882.866 1.15.866 2.757 0 1.43 0 1.454.332 1.646.767.434 1.275-.104 1.454-1.53.23-1.863-.88-4.03-2.552-5.026-1.093-.64-2.968-.895-3.836-.526zm-6.276 2.376c-1.43.51-2.807 1.492-4.286 3.07-3.508 3.73-3.277 7.272.587 9.154 4.02 1.964 9.428 1.313 12.374-1.492 2.207-2.093 1.938-4.72-.573-5.605-.447-.152-.588-.27-.522-.408.23-.562.306-1.21.178-1.594-.396-1.212-1.837-1.49-3.98-.77l-.853.294.077-.854c.09-1.008-.128-1.56-.728-1.856-.5-.258-1.457-.232-2.274.062zm3.546 4.936c1.9.523 3.063 1.67 3.063 3.036 0 1.52-1.352 2.883-3.545 3.61-1.174.383-3.354.46-4.427.164-2.027-.572-3.176-1.695-3.176-3.146 0-.79.344-1.48 1.098-2.188.7-.66 1.236-.98 2.27-1.32 1.555-.513 3.226-.577 4.718-.156zm-4.018 1.236c-1.29.6-1.98 1.52-1.98 2.666 0 1.047.46 1.762 1.47 2.297.776.423 2.206.384 3.072-.062 1.11-.588 1.837-1.672 1.837-2.73-.014-.86-.778-1.895-1.686-2.27-.724-.307-1.948-.256-2.714.1zm.932 2.4c.09.09.152.306.152.497 0 .64-1.07 1.16-1.505.73-.244-.235-.18-.843.102-1.124.28-.28 1.007-.343 1.25-.1zm6.033-8.33c-.587.587-.19 1.288.74 1.288.805 0 1.16.408 1.16 1.327 0 .574.052.74.28.894.69.484 1.25-.05 1.25-1.188 0-1.392-.994-2.44-2.41-2.54-.637-.05-.79-.012-1.02.22z"/><g fill="#040000"><path d="M1.532 140.436c-.578.213-.978.668-1.038 1.2-.073.642-.045.702 2.154 4.452 1.117 1.92 2.038 3.52 2.038 3.56 0 .034-.354.853-.786 1.818-.438.966-.83 1.91-.882 2.095-.23.898.174 1.605 1.072 1.863.69.208 1.162.022 1.61-.628.22-.314 5.535-12.08 5.644-12.48.1-.386.1-.583-.007-.937-.105-.358-.448-.685-.88-.85-.982-.363-1.566-.134-2.005.8-.118.252-.65 1.432-1.186 2.627-.54 1.2-.988 2.178-1.005 2.178-.02-.006-.68-1.123-1.465-2.486-1.14-1.97-1.493-2.543-1.74-2.79-.45-.466-.995-.62-1.523-.42zM12.792 141.508c-.346.13-.562.314-.7.612-.135.27-.14.34-.19 2.435-.02 1.188-.033 3.24-.027 4.563l.018 2.394.175.348c.146.285.23.367.468.488.25.137.36.15.875.15.49 0 .626-.02.83-.13.596-.32.66-.577.66-2.687 0-.91.01-1.65.028-1.65.022 0 1.02.91 2.224 2.026 1.22 1.133 2.307 2.096 2.458 2.178.362.188.963.23 1.344.088.618-.237.87-.666.822-1.41-.046-.768-.11-.85-1.908-2.508-.864-.8-1.576-1.48-1.576-1.512-.006-.035.45-.482 1.004-1.01 1.77-1.658 1.82-1.723 2.025-2.107.105-.21.2-.504.218-.678.063-.62-.292-1.23-.895-1.52-.273-.14-.374-.153-.684-.134-.2.02-.484.092-.626.158-.188.093-.87.747-2.348 2.237l-2.084 2.113-.005-1.59c0-.897-.028-1.72-.063-1.883-.082-.38-.34-.73-.647-.887-.315-.152-1.075-.2-1.395-.082z"/></g><path fill="#231815" d="M10.52 171.2c.46 0 .82-.15 1.085-.366.264-.215.395-.514.395-.89v-2.284c0-.336-.134-.613-.4-.827-.27-.214-.612-.32-1.032-.32-.46 0-.828.105-1.1.304-.273.203-.41.48-.41.816v2.293c0 .375.134.676.398.896.266.225.62.38 1.064.38zm-.48-3.454c0-.087.042-.157.128-.213.088-.055.2-.08.34-.08.15 0 .272.025.365.08.093.055.14.126.14.213v2.17c0 .107-.046.193-.137.253-.092.06-.214.092-.367.092-.15 0-.268-.03-.35-.093-.08-.06-.12-.145-.12-.253v-2.17zm3.528 3.453c.163 0 .327-.1.498-.193.175-.098.338-.24.497-.428v.507h.86v-4.58h-.86v3.478c-.08.104-.17.186-.266.246-.097.064-.177.104-.24.104-.08 0-.14-.022-.175-.074-.036-.05-.057-.127-.057-.23v-3.518h-.856v3.827c0 .27.05.478.15.613.1.13.25.246.448.246zm2.18.967h-9.75c-1.553 0-2.81 1.248-2.81 2.785v2.358c0 1.54 1.257 2.79 2.81 2.79h9.75c1.55 0 2.807-1.25 2.807-2.79v-2.358c-.002-1.537-1.258-2.785-2.808-2.785zm-8.74 2.188h-.974v4.166h-.94v-4.165h-.975v-.71h2.888v.71zm2.903 4.227H8.898v-.436c-.188.16-.383.283-.587.36-.202.09-.397.132-.588.132-.236 0-.41-.063-.53-.182-.117-.114-.18-.294-.18-.52v-3.292h1.015v3.02c0 .093.02.158.063.2.043.044.114.062.21.062.072 0 .17-.025.28-.08.115-.054.22-.125.316-.213v-2.988H9.91v3.937zm3.84-.75c0 .26-.078.456-.235.592-.154.14-.384.205-.68.205-.197 0-.373-.024-.524-.077-.15-.053-.297-.136-.43-.248v.278H10.87v-4.938h1.013v1.592c.14-.104.282-.19.432-.252.152-.06.31-.088.462-.088.317 0 .56.078.728.232.167.154.25.38.25.68v2.022zm3.862-1.11h-1.87v.71c0 .197.03.338.096.414s.177.113.332.113c.163 0 .275-.034.342-.1.063-.065.1-.208.1-.434v-.173h1.004v.19c0 .39-.12.68-.37.876-.243.188-.61.29-1.098.29-.438 0-.783-.104-1.034-.313-.25-.203-.378-.49-.378-.854v-1.696c0-.323.14-.595.417-.8.278-.206.632-.314 1.07-.314.446 0 .79.1 1.03.284.24.19.358.464.358.823l.002.98zm-10.907-5.51H7.79v-2.737l1.267-3.854H7.952l-.674 2.64h-.07l-.704-2.64H5.41l1.294 3.98v2.612zm5.596 4.263l-.212.037-.207.11v2.27c.082.064.162.105.24.13l.24.04c.124 0 .214-.022.27-.08.06-.052.087-.134.087-.247v-1.883c0-.125-.032-.218-.104-.28-.073-.065-.176-.097-.312-.097zm3.924-.166c-.157 0-.27.034-.337.103-.067.067-.1.18-.1.34v.38h.862v-.38c0-.16-.035-.27-.105-.34-.062-.07-.173-.104-.32-.104zM360 141.284c4.18 0 7.563 3.386 7.563 7.563 0 4.176-3.386 7.563-7.563 7.563s-7.563-3.385-7.563-7.563 3.385-7.563 7.563-7.563zm.27 2.487c-3.13 0-4.706 2.173-4.706 3.98 0 1.102.43 2.07 1.35 2.438.147.062.287.002.33-.157l.137-.514c.046-.158.024-.215-.1-.354-.264-.31-.434-.695-.434-1.25 0-1.608 1.245-3.06 3.24-3.06 1.772 0 2.742 1.048 2.742 2.44 0 1.84-.842 3.393-2.09 3.393-.688 0-1.205-.55-1.04-1.23.197-.808.583-1.68.583-2.26 0-.522-.288-.96-.89-.96-.704 0-1.27.705-1.27 1.647 0 .604.212 1.01.212 1.01l-.854 3.48c-.25 1.03-.032 2.297-.02 2.423.012.076.11.1.155.037.063-.082.902-1.085 1.188-2.088.08-.284.464-1.753.464-1.753.23.425.896.797 1.606.797 2.114 0 3.556-1.87 3.556-4.37.012-1.884-1.642-3.646-4.156-3.646z"/><path d="M397.152 143.122c0-1.015.82-1.838 1.838-1.838h10.565c1.016 0 1.838.823 1.838 1.838v10.565c0 1.016-.822 1.838-1.838 1.838H398.99c-1.017 0-1.838-.822-1.838-1.838v-10.565zm10.32 9.714l-.533-1.54c-.204.136-.605.2-.874.2-.804 0-1.004-.604-1.004-1.072v-3.35h2.145v-1.608h-2.145v-2.747h-1.544c-.063 0-.063 0-.133.064-.067.805-.472 2.278-2.078 2.882v1.408h1.07v3.484c0 1.205.872 2.943 3.22 2.88.8 0 1.674-.333 1.874-.602z"/><path fill="#231815" d="M416.378 183.51c-.048 0-.093-.003-.128-.005-.024.003-.056.005-.08.005-.985 0-1.647-.468-2.23-.88-.416-.294-.81-.57-1.27-.647-.23-.04-.45-.058-.672-.058-.39 0-.7.062-.928.104-.14.026-.26.05-.354.05-.1 0-.216-.02-.266-.19-.04-.132-.065-.26-.095-.384-.066-.31-.116-.496-.23-.515-1.234-.19-1.97-.47-2.11-.812-.02-.033-.023-.07-.025-.104-.006-.104.065-.19.166-.206.98-.16 1.854-.684 2.597-1.544.57-.67.854-1.308.886-1.38l.003-.008c.145-.29.173-.54.086-.744-.16-.375-.69-.543-1.037-.65-.086-.025-.168-.057-.232-.08-.31-.122-.815-.38-.75-.734.05-.263.396-.44.67-.44.078 0 .147.015.203.04.313.146.6.223.84.223.306 0 .45-.112.483-.145-.01-.165-.02-.33-.027-.495-.07-1.127-.16-2.53.197-3.34 1.073-2.406 3.354-2.597 4.025-2.597l.334-.003c.675 0 2.96.188 4.035 2.6.358.81.272 2.213.2 3.344l-.005.055c-.01.15-.02.3-.024.437.033.03.167.138.44.146.23-.01.497-.083.79-.222.09-.04.19-.052.26-.052.105 0 .208.02.297.06l.005.002c.25.088.41.267.416.45.002.172-.125.43-.76.68-.063.024-.146.053-.23.08-.354.108-.88.276-1.036.65-.088.205-.06.455.084.744l.004.012c.045.104 1.106 2.527 3.48 2.92.102.018.17.104.167.207-.006.036-.015.072-.026.105-.145.34-.874.62-2.11.813-.115.02-.165.205-.23.516-.025.127-.058.25-.094.38-.037.124-.117.186-.246.186h-.02c-.083 0-.202-.015-.354-.043-.264-.053-.557-.102-.93-.102-.218 0-.438.02-.668.057-.462.076-.854.355-1.27.648-.587.4-1.247.867-2.23.867M367.61 166.962h8.777c1.672 0 3.04 1.37 3.04 3.042v8.777c0 1.673-1.368 3.042-3.04 3.042h-8.776c-1.672 0-3.04-1.37-3.04-3.04v-8.778c0-1.673 1.368-3.042 3.04-3.042z"/><path fill="#FFF" d="M371.985 169.04c3.235 0 5.86 2.103 5.86 4.692 0 .906-.32 1.752-.876 2.47-.027.038-.064.086-.108.136l-.004.003c-.188.23-.402.44-.638.637-1.622 1.498-4.288 3.28-4.643 3.008-.306-.237.506-1.407-.43-1.604-.064-.007-.13-.015-.195-.02v-.002c-2.747-.39-4.832-2.312-4.832-4.62.003-2.595 2.628-4.697 5.865-4.697z"/><path fill="#231815" d="M368.585 175.23h1.183c.17 0 .307-.14.307-.308v-.022c0-.168-.138-.308-.307-.308h-.853v-1.938c0-.17-.138-.307-.306-.307h-.025c-.17 0-.307.137-.307.307v2.27c0 .17.138.306.307.306zm7.323-1.42v-.022c0-.168-.14-.307-.307-.307h-.852V173h.853c.17 0 .308-.142.308-.31v-.023c0-.167-.14-.31-.307-.31h-1.183c-.168 0-.307.143-.307.31v2.27c0 .168.14.307.307.307h1.184c.17 0 .308-.14.308-.307v-.025c0-.168-.14-.305-.307-.305h-.852v-.484h.853c.17-.008.308-.144.308-.312zm-2.272 1.33c.06-.057.09-.134.09-.212v-2.27c0-.17-.14-.305-.31-.305h-.022c-.168 0-.307.135-.307.306v1.328l-1.104-1.48c-.053-.093-.15-.154-.268-.154h-.023c-.167 0-.307.138-.307.31v2.27c0 .165.14.304.307.304h.023c.17 0 .307-.14.307-.305v-1.357l1.114 1.52c.005.012.015.022.02.03.03.04.072.07.12.088.034.02.073.02.115.02h.023c.05 0 .102-.01.146-.033.033-.018.056-.04.076-.06zm-3.01.09h.023c.167 0 .305-.14.305-.308v-2.27c0-.17-.138-.306-.306-.306h-.025c-.17 0-.307.137-.307.307v2.27c0 .17.138.307.307.307z"/><path d="M167.372 167.783c-3.123-.75-6.29 1.19-7.042 4.314l.637-2.65c.4-1.666 2.09-2.7 3.757-2.3l2.648.636M169.324 168.252c3.123.75 5.063 3.92 4.313 7.04l.636-2.645c.4-1.666-.634-3.355-2.3-3.758l-2.65-.638M166.172 181.378c3.122.75 6.29-1.19 7.04-4.313l-.636 2.65c-.4 1.664-2.09 2.7-3.756 2.3l-2.648-.637M164.22 180.908c-3.124-.75-5.064-3.918-4.314-7.04l-.638 2.647c-.4 1.666.636 3.354 2.302 3.756l2.65.638"/><path d="M166.772 167.906c-3.688 0-6.674 2.988-6.674 6.675s2.986 6.675 6.674 6.675c3.687 0 6.674-2.987 6.674-6.674s-2.988-6.674-6.674-6.674zm-1.888 1.823c1.044 0 1.89.844 1.89 1.89 0 1.04-.846 1.887-1.89 1.887-1.043 0-1.89-.846-1.89-1.888 0-1.048.847-1.89 1.89-1.89zm-1.008 8.797c-1.043 0-1.888-.846-1.888-1.89 0-1.043.845-1.89 1.888-1.89 1.042 0 1.89.847 1.89 1.89 0 1.045-.848 1.89-1.89 1.89zm2.02-3.88c0-.458.37-.83.828-.83.458 0 .83.372.83.83 0 .458-.372.83-.83.83-.46 0-.83-.372-.83-.83zm2.755 4.818c-1.042 0-1.888-.846-1.888-1.89 0-1.04.846-1.888 1.89-1.888s1.886.848 1.886 1.89c0 1.042-.844 1.888-1.887 1.888zm1.006-5.026c-1.042 0-1.888-.848-1.888-1.89 0-1.042.846-1.89 1.888-1.89 1.044 0 1.89.847 1.89 1.89s-.846 1.89-1.89 1.89z"/><path fill="#040000" d="M233.58 180.982c0 .653-.53 1.188-1.186 1.188h-12.808c-.653 0-1.187-.533-1.187-1.188v-12.806c0-.653.53-1.188 1.186-1.188h12.808c.653 0 1.186.532 1.186 1.188v12.806z"/><path fill="#FFF" d="M225.99 169.127c-3.403 0-6.165 2.178-6.165 4.86 0 1.737 1.153 3.26 2.89 4.12-.094.326-.605 2.096-.627 2.232 0 0-.012.103.06.144.063.04.145.01.145.01.194-.025 2.25-1.47 2.606-1.723.353.054.722.08 1.094.08 3.405 0 6.166-2.18 6.166-4.864-.003-2.68-2.762-4.86-6.17-4.86z"/><path fill="#040000" d="M222.582 175.684c-.193 0-.354-.15-.354-.338v-2.113h-.56c-.188 0-.35-.155-.35-.35 0-.19.16-.347.35-.347h1.824c.19 0 .348.153.348.348 0 .19-.155.35-.348.35h-.556v2.112c.003.185-.157.338-.354.338zm3.12-.002c-.147 0-.263-.062-.298-.158l-.176-.463h-1.084l-.18.466c-.03.097-.145.156-.294.156-.077 0-.153-.02-.226-.05-.1-.047-.193-.17-.086-.506l.852-2.24c.063-.17.243-.345.477-.35.23.004.414.18.474.35l.854 2.24c.106.337.014.46-.084.506-.073.03-.15.05-.23.05zm-.66-1.248l-.354-1.01-.355 1.01h.71zm1.543 1.2c-.188 0-.342-.147-.342-.325v-2.42c0-.194.163-.353.364-.353.2 0 .36.158.36.354v2.093h.757c.188 0 .342.146.342.326 0 .18-.153.323-.342.323h-1.14zm1.976.048c-.196 0-.353-.16-.353-.354v-2.437c0-.194.158-.353.354-.353.196 0 .355.158.355.354v.768l.993-.99c.05-.056.12-.082.197-.082.088 0 .178.04.244.104.062.063.1.145.103.227.004.084-.02.16-.078.217l-.813.813.875 1.16c.06.076.082.17.068.264-.013.095-.063.18-.14.233-.062.05-.136.072-.214.072-.11 0-.216-.053-.282-.142l-.834-1.105-.124.123v.778c.006.193-.153.354-.35.354z"/><g fill="#040000"><path d="M282.168 171.953l-5.23 3.148c-.09.054-.127.158-.098.255l.684 2.444c.02.065.12.06.127-.018l.15-1.688c.007-.13.067-.248.164-.33l4.27-3.726c.047-.04-.013-.122-.066-.085z"/><path d="M284.177 166.99h-9.933c-1.445 0-2.622 1.18-2.622 2.625v9.93c0 1.448 1.177 2.625 2.622 2.625h9.933c1.445 0 2.622-1.177 2.622-2.624v-9.93c0-1.447-1.185-2.626-2.623-2.626zm.434 3.315l-1.917 8.717c-.066.293-.412.412-.646.228l-2.248-1.784c-.165-.135-.41-.11-.555.055l-1.155 1.335c-.2.238-.592.154-.682-.138l-1.02-3.14c-.047-.128-.152-.23-.277-.264l-2.015-.532c-.37-.098-.404-.605-.055-.756l10.02-4.174c.305-.12.62.138.55.455z"/></g><g><path fill="#040000" d="M335.862 180.85c0 .64-.52 1.162-1.16 1.162h-12.54c-.642 0-1.16-.522-1.16-1.162v-12.537c0-.64.52-1.162 1.16-1.162h12.54c.64 0 1.16.523 1.16 1.163v12.537z"/><path fill="#FFF" d="M334.723 176.613c0 1.012-.982 1.83-2.193 1.83h-8.193c-1.212 0-2.194-.818-2.194-1.83v-5.063c0-1.014.982-1.834 2.194-1.834h8.193c1.21 0 2.193.82 2.193 1.834v5.063z"/><path fill="#FFF" d="M329.606 178.04l-1.174 2.032-1.175-2.033"/></g><g fill="#323333"><path d="M20.96 205.86c-.038 0-.076-.003-.113-.01-.39-.06-.654-.427-.592-.814.104-.652.06-1.313-.134-1.966-.217-.736-.63-1.434-1.16-1.96-.555-.546-1.202-.894-1.875-1-.408-.064-.81-.038-1.197.075-.375.112-.774-.104-.886-.48-.11-.378.104-.775.482-.887.59-.176 1.203-.215 1.82-.116.972.153 1.89.638 2.657 1.397.71.698 1.235 1.587 1.525 2.564.253.858.313 1.73.175 2.594-.054.353-.357.603-.7.603z"/><path d="M24.652 207.664c-.073 0-.147-.012-.222-.035-.374-.123-.578-.526-.456-.9.546-1.67.544-3.448-.005-5.144-.396-1.213-1.064-2.338-1.934-3.252-.884-.93-1.955-1.618-3.097-1.992-1.363-.447-2.758-.445-4.147.006-.373.122-.776-.084-.898-.457-.122-.374.084-.776.458-.898 1.66-.538 3.4-.54 5.032-.005 1.366.447 2.64 1.265 3.686 2.365 1.02 1.066 1.797 2.38 2.256 3.795.645 1.982.646 4.066.004 6.025-.1.3-.378.492-.678.492zM14.535 212.23c-1.604 0-3.507-1.086-4.936-2.95-1.918-2.5-2.26-5.462-.794-6.888.283-.272.733-.267 1.01.014.273.283.268.734-.015 1.01-.798.777-.67 2.91.93 4.997 1.602 2.09 3.627 2.765 4.586 2.2.338-.202.776-.09.977.248.2.34.09.777-.25.98-.447.264-.96.39-1.508.39z"/><path d="M16.913 218.398c-2.604 0-6.4-2.69-9.84-7.182-4.208-5.488-5.682-11.027-3.43-12.883 1.24-1.023 1.45-1.143 1.743-1.168.393-.04.737.256.772.646.03.34-.18.642-.487.74-.096.062-.366.26-1.12.882-1.366 1.125-.2 5.885 3.653 10.916 3.88 5.063 8.16 7.426 9.58 6.375.855-.632 1.104-.837 1.173-.904.218-.292.625-.374.94-.185.336.204.444.643.24.98-.113.187-.272.344-1.505 1.255-.48.357-1.06.528-1.717.528z"/><path d="M20.44 216.488c-.423 0-.813-.19-1.07-.526l-3.713-4.846c-.453-.593-.338-1.44.252-1.892l1.68-1.29c.577-.438 1.453-.32 1.892.25l3.71 4.847c.218.284.313.638.266.995-.046.358-.23.677-.516.896l-1.68 1.29c-.24.183-.523.278-.822.278zm-3.604-6.177l3.618 4.722 1.56-1.194-3.617-4.722-1.56 1.195zM10.466 203.47c-.424 0-.814-.192-1.072-.528l-3.71-4.845c-.22-.284-.314-.64-.267-.997.047-.357.23-.675.515-.894l1.682-1.29c.578-.44 1.454-.32 1.893.25l3.712 4.846c.45.592.337 1.44-.253 1.89l-1.68 1.29c-.24.182-.523.277-.82.277zm-3.605-6.18l3.618 4.724 1.56-1.195-3.617-4.725-1.56 1.196z"/></g><g><g fill="#323333"><path d="M106.123 213.184h-.743c-2.545 0-4.463-1.918-4.463-4.463s1.918-4.462 4.463-4.462h.743v8.926zm-1.487-7.357c-1.33.305-2.232 1.43-2.232 2.894s.903 2.59 2.232 2.896v-5.79zM120.258 213.184h-.744v-8.927h.744c2.545 0 4.463 1.918 4.463 4.463 0 2.546-1.918 4.464-4.462 4.464m.743-7.357v5.786c1.33-.305 2.232-1.43 2.232-2.895s-.903-2.586-2.23-2.89M121 216.902v-1.486c.37 0 .744-.23.744-.744h1.488c0 1.27-.96 2.23-2.23 2.23"/><path d="M118.025 215.416h2.977v1.488h-2.977z"/><path d="M116.185 218.398c-1.23 0-2.23-1.002-2.23-2.23s1-2.232 2.23-2.232 2.232 1.002 2.232 2.23-1 2.232-2.232 2.232m0-2.976c-.41 0-.744.333-.744.744s.335.744.745.744.744-.333.744-.744-.334-.744-.745-.744M121 202.773h-1.487c0-3.693-3.003-6.7-6.695-6.7-3.69 0-6.695 3.006-6.695 6.7h-1.487c0-4.514 3.67-8.188 8.183-8.188s8.18 3.675 8.18 8.188"/></g></g><g><path fill="#3E3A39" d="M50.98 213.797l1.276-3.994c-2.323-1.638-3.647-4.025-3.647-6.61 0-4.747 4.55-8.605 10.145-8.605 5.033 0 9.25 3.056 10.02 7.267l.167.906-.92-.04c-.12-.005-.24-.007-.363-.007v-.653l-.327.06c-.635-3.457-4.322-6.064-8.578-6.064-4.785 0-8.678 3.202-8.678 7.138 0 2.215 1.225 4.27 3.357 5.635l.474.303-.084.59-.375 1.175 2.093-1.066.436.125c1.072.298 2.233.42 3.368.354l.08 1.466c-1.253.067-2.533-.056-3.732-.377l-4.717 2.397z"/><path fill="#3E3A39" d="M74.486 218.398l-4.184-2.135c-.818.217-1.69.33-2.573.33-4.79 0-8.686-3.313-8.686-7.384 0-4.07 3.896-7.382 8.685-7.382 4.787 0 8.682 3.312 8.682 7.38 0 2.197-1.108 4.227-3.062 5.63l1.136 3.56zm-4.04-3.71l1.573.804-.41-1.278.49-.3c1.83-1.173 2.845-2.873 2.845-4.705 0-3.263-3.236-5.916-7.216-5.916s-7.22 2.653-7.22 5.915 3.238 5.916 7.22 5.916c.793 0 1.573-.104 2.316-.313l.4-.124z"/><ellipse fill="#3E3A39" cx="70.494" cy="207.407" rx="1.117" ry="1.08"/><ellipse fill="#3E3A39" cx="64.962" cy="207.407" rx="1.115" ry="1.08"/><ellipse fill="#3E3A39" cx="62.027" cy="200.481" rx="1.321" ry="1.28"/><ellipse fill="#3E3A39" cx="55.477" cy="200.481" rx="1.321" ry="1.28"/></g><g fill="#3E3A39"><path d="M151.405 195.19h17.562v1.425h-17.562zM147.594 208.5l3.228-10.508h18.684l4.198 10.453-7.81-.46-3.313-2.482-3.042 2.544-3.1-2.527-2.74 2.29-6.104.69zm18.81-1.91l5.14.303-3.002-7.476h-16.668l-2.28 7.422 3.52-.398 3.312-2.77 3.1 2.526 3.007-2.512 3.872 2.904zM169.063 219.003H151.73c-1.195 0-2.168-.994-2.168-2.215v-7.063h1.425v7.063c0 .437.334.79.744.79h17.333c.41 0 .745-.353.745-.79v-7.063h1.424v7.063c0 1.22-.973 2.215-2.17 2.215z"/><path d="M167.154 218.52h-1.424v-5.663c0-.224-.144-.412-.313-.412H155.8c-.168 0-.312.188-.312.412v5.664h-1.425v-5.663c0-1.013.78-1.836 1.738-1.836h9.617c.96 0 1.737.824 1.737 1.837v5.664z"/></g><g><path fill="none" stroke="#3E3A39" stroke-width="1.5" stroke-miterlimit="10" d="M217.688 204.535h3.215c.815 0 1.478.662 1.478 1.478v11.513c0 .815-.66 1.48-1.477 1.48h-21.81c-.815 0-1.478-.663-1.478-1.48v-11.513c0-.815.662-1.478 1.478-1.478h3.397"/><path fill="none" stroke="#3E3A39" stroke-width="1.5" stroke-miterlimit="10" d="M203.807 207.46c2.076 3.226 6.19 7.763 6.19 7.763s5.696-6.434 6.938-9.016c.483-1.006.754-2.135.754-3.326 0-4.246-3.444-7.688-7.69-7.688-4.247 0-7.69 3.442-7.69 7.69 0 .96.064 1.247.382 2.325"/><circle fill="#3E3A39" cx="209.998" cy="202.774" r="2.433"/></g><g><path fill="#3C3D3D" d="M315.572 201.234c.138 0 .27.002.404.01-.71-3.862-4.696-6.817-9.51-6.817-5.314 0-9.622 3.604-9.622 8.048 0 2.605 1.48 4.922 3.776 6.394.03.02.09.055.09.055l-.932 2.912 3.48-1.77.162.046c.957.268 1.98.41 3.045.41.217 0 .433-.008.646-.02-.196-.61-.305-1.256-.305-1.92.003-4.06 3.927-7.35 8.767-7.35zm-5.757-2.84c.745 0 1.352.587 1.352 1.31 0 .723-.605 1.31-1.352 1.31-.747 0-1.35-.587-1.35-1.31 0-.724.603-1.31 1.35-1.31zm-6.698 2.618c-.745 0-1.35-.587-1.35-1.31 0-.724.603-1.308 1.35-1.308.747 0 1.354.584 1.354 1.31 0 .72-.606 1.308-1.353 1.308z"/><path fill="#3C3D3D" d="M307.516 208.628c0 3.755 3.64 6.8 8.13 6.8.9 0 1.765-.123 2.57-.35.048-.012.14-.04.14-.04l2.938 1.5-.785-2.462s.05-.03.072-.047c1.94-1.243 3.19-3.2 3.19-5.402 0-3.754-3.64-6.797-8.127-6.797-4.49 0-8.13 3.044-8.13 6.798zm9.814-2.34c0-.61.512-1.105 1.143-1.105s1.143.493 1.143 1.104c0 .61-.512 1.105-1.143 1.105s-1.143-.494-1.143-1.105zm-5.655 0c0-.61.51-1.105 1.142-1.105s1.143.493 1.143 1.104c0 .61-.512 1.105-1.143 1.105s-1.142-.494-1.142-1.105z"/></g><g fill="#3C3D3D"><path d="M369.04 206.184c-1.02-.197-.523-.744-.523-.744s.996-1.644-.196-2.836c-1.478-1.48-5.07.188-5.07.188-1.372.426-1.01-.194-.814-1.25 0-1.243-.427-3.348-4.083-2.104-3.65 1.25-6.786 5.627-6.786 5.627-2.18 2.91-1.893 5.158-1.893 5.158.546 4.965 5.818 6.33 9.923 6.652 4.316.337 10.144-1.49 11.91-5.24 1.764-3.76-1.445-5.248-2.467-5.45zm-9.125 9.29c-4.285.2-7.748-1.948-7.748-4.81 0-2.863 3.463-5.158 7.748-5.355 4.288-.198 7.76 1.568 7.76 4.425 0 2.86-3.472 5.544-7.76 5.738z"/><path d="M359.06 207.193c-4.31.506-3.812 4.543-3.812 4.543s-.043 1.28 1.157 1.93c2.52 1.365 5.117.538 6.43-1.156 1.313-1.696.543-5.817-3.774-5.317zm-1.085 5.668c-.806.096-1.454-.368-1.454-1.042 0-.67.577-1.373 1.383-1.457.923-.087 1.525.444 1.525 1.118 0 .672-.653 1.292-1.453 1.383zm2.54-2.163c-.272.203-.608.174-.752-.07-.15-.238-.095-.62.182-.82.32-.236.65-.17.795.068.144.245.04.61-.226.822zM375.278 203.544c.02-.08.033-.162.033-.25.06-.38.096-.767.096-1.153 0-4.252-3.46-7.713-7.714-7.713-.59 0-1.065.478-1.065 1.067 0 .588.478 1.066 1.065 1.066 3.077 0 5.58 2.504 5.58 5.58 0 .344-.03.687-.092 1.02l.012.002c-.004.04-.012.08-.012.122 0 .59.478 1.066 1.065 1.066.497 0 .91-.342 1.028-.8h.002l.003-.006z"/><path d="M371.938 202.542c.013-.132.026-.265.026-.4 0-2.355-1.916-4.272-4.272-4.272-.49 0-.89.398-.89.89 0 .49.398.888.89.888 1.376 0 2.495 1.12 2.495 2.496 0 .108-.007.215-.02.32l.02.003c-.004.035-.02.067-.02.103 0 .492.396.89.888.89.45 0 .806-.34.865-.77h.01c.003-.022 0-.046.004-.068 0-.02.01-.033.01-.052 0-.01-.006-.02-.006-.028z"/></g><g><path opacity=".7" fill="#3C3D3D" d="M253.48 194.427s-8.803 13.78 5.268 22.11c0 0 9.83-12.226-5.268-22.11z"/><path opacity=".7" fill="#3C3D3D" d="M259.01 216.345s-7.954-14.286 6.595-21.75c0 0 9.07 12.8-6.596 21.75z"/><path opacity=".7" fill="#3C3D3D" d="M259.14 216.46s-1.904-14.272 13.15-15.242c0 0 3.378 13.463-13.15 15.243z"/><path opacity=".7" fill="#3C3D3D" d="M259.12 216.288c.01.08.016.132.02.155.01.004.018.01.027.015 7.99-.868 11.318-4.472 12.628-7.954-8.066-.727-12.148 6.747-12.674 7.784zM259.028 216.46s1.904-14.272-13.15-15.242c0 0-3.376 13.463 13.15 15.243z"/><path opacity=".7" fill="#3C3D3D" d="M259.048 216.288l-.018.155c-.01.004-.02.01-.027.015-7.99-.868-11.32-4.472-12.63-7.954 8.066-.727 12.148 6.747 12.675 7.784z"/></g></svg>