<?xml version="1.0" encoding="UTF-8"?>
<svg width="60px" height="60px" viewBox="0 0 60 60" version="1.1" xmlns="http://www.w3.org/2000/svg" xmlns:xlink="http://www.w3.org/1999/xlink">
    <!-- Generator: Sketch 53.2 (72643) - https://sketchapp.com -->
    <title>保修服务</title>
    <desc>Created with Sketch.</desc>
    <defs>
        <rect id="path-1" x="0" y="0" width="60" height="60"></rect>
    </defs>
    <g id="更多服务已完成" stroke="none" stroke-width="1" fill="none" fill-rule="evenodd">
        <g id="更多功能服务功能1" transform="translate(-1136.000000, -594.000000)">
            <g id="保修服务" transform="translate(1136.000000, 594.000000)">
                <g id="保修查询">
                    <mask id="mask-2" fill="white">
                        <use xlink:href="#path-1"></use>
                    </mask>
                    <g id="Mask"></g>
                    <g id="Group-63" mask="url(#mask-2)" fill-rule="nonzero" stroke="#323232" stroke-width="2.4">
                        <g transform="translate(6.000000, 7.200000)">
                            <path d="M13.0333333,29.952 L13.0333333,34.0098876 L33.8866667,34.0098876 L33.8866667,29.952 C33.8866667,29.315768 34.4024346,28.8 35.0386667,28.8 L45.768,28.8 C46.404232,28.8 46.92,29.315768 46.92,29.952 L46.92,44.3196404 C46.92,44.9558725 46.404232,45.4716404 45.768,45.4716404 L1.152,45.4716404 C0.515767968,45.4716404 1.18813898e-15,44.9558725 1.11022302e-15,44.3196404 L0,29.952 C-7.79159521e-17,29.315768 0.515767968,28.8 1.152,28.8 L11.8813333,28.8 C12.5175654,28.8 13.0333333,29.315768 13.0333333,29.952 Z" id="路径"></path>
                            <path d="M41.4506667,28.8162043 L41.4506667,2.304 C41.4506667,1.03153594 40.4191307,-1.56601549e-15 39.1466667,-1.33226763e-15 L8.304,-4.4408921e-16 C7.03153594,-2.10341353e-16 6,1.03153594 6,2.304 L6,28.8162043" id="路径"></path>
                            <path d="M18.1505897,22.5088889 L30.5717903,22.5088889 L31.6868213,12.5015249 L29.542414,13.140322 C28.6365272,13.4101765 27.6571054,13.1115118 27.0559359,12.3820959 L24.3378348,9.0841474 L21.6036894,12.3860713 C21.0014696,13.1133495 20.0226918,13.4099725 19.1180549,13.139354 L17.0001361,12.5057872 L18.1505897,22.5088889 Z" id="路径-3"></path>
                        </g>
                    </g>
                </g>
                <g id="vip服务3-copy-5" transform="translate(19.320000, 14.720000)">
                    <g id="Group-75">
                        <g id="分组"></g>
                    </g>
                </g>
            </g>
        </g>
    </g>
</svg>